<svg xmlns="http://www.w3.org/2000/svg" viewBox="0 0 63.05 44.83"><defs><style>.cls-1{fill:#fff;stroke:#000;stroke-miterlimit:10;}</style></defs><g id="Layer_2" data-name="Layer 2"><g id="Layer_1-2" data-name="Layer 1"><path class="cls-1" d="M52.92,13.16S45.49-4.32,34.12,1.8s-5.24,21-5.24,21S14,.92,9.65,2.67s-10.41,7-8.92,9,7.09,0,7.09,0S20.58,21,21,27.58s12.68,6.56,12.68,6.56l3.06,7.43s-4.37.87-3.5,2.18,8.39,0,8.35,0,3.45-.44,2.58-1.75-2.63-9.17-3.5-9.17,4.37-4.81,7-3.94,6.56,7.65,6.34,8.85S52.48,41,54,41.48s9-2.1,8.52-3-.44-3.06-.87-3.06-5.25-4.37-4.81-6.12S57.72,18.4,52.92,13.16Z"/></g></g></svg>