<svg xmlns="http://www.w3.org/2000/svg" viewBox="0 0 792.71 797.6"><defs><style>.cls-1{fill:none;stroke:#00a99d;stroke-miterlimit:10;}</style></defs><g id="Layer_2" data-name="Layer 2"><g id="Layer_1-2" data-name="Layer 1"><path class="cls-1" d="M756.46,580.82c-102.18,196.61-344.39,273.17-541,171C20.05,650.27-56,409.54,45.5,214.14,146.43,19.93,385.68-55.69,579.88,45.23c193,100.3,268.18,338.08,167.88,531.1-99.69,191.83-336,266.53-527.85,166.84C29.26,644.09-45,409.22,54.1,218.57,152.56,29.08,386-44.7,575.48,53.77,763.8,151.63,837.13,383.63,739.27,572,642,759.12,411.43,832,224.26,734.74,38.25,638.07-34.19,408.91,62.48,222.89,158.55,38,386.31-34,571.18,62.1,754.92,157.58,826.47,383.94,731,567.68,636.09,750.29,411.12,821.4,228.51,726.51,47,632.19-23.66,408.6,70.66,227.11,164.4,46.73,386.61-23.51,567,70.23c179.27,93.16,249.08,314,155.92,493.28-92.59,178.18-312.09,247.55-490.26,155-177.08-92-246-310.17-154-487.25C170.1,55.23,386.91-13.3,562.9,78.16c174.91,90.9,243,306.38,152.13,481.29C624.69,733.29,410.53,801,236.69,710.64,63.92,620.86-3.36,408,86.43,235.24,175.66,63.53,387.2-3.33,558.91,85.9,729.57,174.58,796,384.82,707.33,555.48,619.19,725.09,410.24,791.14,240.63,703,72.06,615.4,6.43,407.73,94,239.16,181.09,71.63,387.48,6.39,555,93.45,721.52,180,786.36,385.1,699.83,551.61,613.83,717.1,410,781.53,244.48,695.54,80,610.07,16,407.45,101.44,243,186.38,79.52,387.75,15.87,551.21,100.82c162.46,84.42,225.72,284.56,141.3,447C608.6,709.3,409.69,772.17,248.23,688.26,87.76,604.87,25.28,407.18,108.67,246.71,191.55,87.23,388,25.13,547.51,108,706,190.38,767.73,385.64,685.36,544.15,603.5,701.68,409.43,763,251.9,681.16,95.33,599.8,34.36,406.92,115.73,250.35,196.59,94.75,388.28,34.16,543.89,115c154.65,80.36,214.87,270.88,134.5,425.54-79.87,153.7-269.22,213.55-422.92,133.67C102.71,594.85,43.23,406.66,122.61,253.9c78.9-151.82,265.93-210.94,417.75-132C691.25,200.27,750,386.16,671.59,537.05,593.66,687,408.92,745.41,259,667.48,109.91,590,51.87,406.41,129.33,257.37c77-148.13,259.46-205.81,407.59-128.83C684.14,205,741.46,386.41,665,533.63c-76,146.31-256.29,203.29-402.6,127.25-145.42-75.57-202-254.71-126.48-400.13C211,116.22,389,60,533.56,135.05c143.64,74.64,199.57,251.6,124.93,395.24C584.3,673,408.43,728.63,265.67,654.45,123.79,580.72,68.54,405.93,142.28,264.05c73.27-141,247-195.92,388-122.64C670.43,214.23,725,386.88,652.17,527c-72.38,139.29-244,193.52-383.26,121.14C130.48,576.23,76.58,405.7,148.51,267.26,220,129.68,389.5,76.11,527.08,147.61c136.74,71,190,239.5,118.93,376.24-70.62,135.9-238,188.82-373.94,118.2C137,571.86,84.41,405.47,154.6,270.4,224.36,136.17,389.73,83.9,524,153.66,657.37,223,709.32,387.34,640,520.75,571.09,653.34,407.75,705,275.15,636.07,143.37,567.59,92.06,405.25,160.54,273.47,228.6,142.5,390,91.5,520.92,159.56c130.16,67.64,180.85,228,113.21,358.16-67.23,129.37-226.6,179.75-356,112.52C149.59,563.42,99.52,405,166.34,276.46,232.74,148.67,390.16,98.91,518,165.32c127,66,176.45,222.45,110.45,349.45C562.81,641,407.32,690.14,281.09,624.55,155.65,559.36,106.8,404.82,172,279.37c64.79-124.68,218.38-173.22,343.06-108.43,123.91,64.39,172.16,217,107.77,341C558.82,635,407.11,683,284,619,161.56,555.4,113.9,404.61,177.51,282.22c63.21-121.65,213.07-169,334.71-105.8,120.9,62.83,168,211.76,105.15,332.66-62.44,120.16-210.46,167-330.62,104.5C167.33,551.53,120.83,404.41,182.89,285c61.67-118.68,207.89-164.9,326.57-103.22,118,61.3,163.89,206.61,102.59,324.57-60.92,117.23-205.34,162.88-322.58,102C173,547.75,127.59,404.22,188.14,287.7,248.32,171.9,391,126.81,506.77,187c115.09,59.8,159.9,201.59,100.1,316.67-59.44,114.39-200.35,158.93-314.74,99.49C178.45,544.07,134.19,404,193.26,290.34c58.71-113,197.9-157,310.89-98.26,112.28,58.35,156,196.68,97.66,309-58,111.61-195.48,155.06-307.08,97.07-110.92-57.64-154.11-194.28-96.47-305.2,57.29-110.23,193.09-153.16,303.32-95.87C611.14,254,653.8,389,596.87,498.51c-56.59,108.88-190.73,151.28-299.61,94.7C189,537,146.9,403.66,203.14,295.44,259,187.88,391.53,146,499.08,201.89,606,257.44,647.6,389.13,592.05,496,536.84,602.26,406,643.63,299.73,588.42,194.14,533.55,153,403.48,207.9,297.89,262.43,193,391.71,152.09,496.64,206.62c104.3,54.2,144.91,182.68,90.71,287-53.86,103.65-181.56,144-285.21,90.15-103-53.53-143.14-180.45-89.6-283.46C265.75,197.9,391.88,158,494.26,211.24c101.76,52.88,141.38,178.24,88.51,280-52.56,101.14-177.15,140.52-278.28,88C204,527,164.84,403.13,217.07,302.62c51.91-99.89,175-138.79,274.87-86.88,99.28,51.59,137.94,173.9,86.35,273.19C527,587.6,405.45,626,306.78,574.74c-98.07-51-136.25-171.77-85.29-269.84,50.65-97.46,170.72-135.42,268.19-84.77,96.86,50.34,134.58,169.68,84.24,266.54C523.89,583,405.29,620.44,309,570.41c-95.68-49.73-132.94-167.6-83.22-263.28C275.22,212,392.37,175,487.47,224.42,582,273.53,618.78,390,569.67,484.48,520.85,578.41,405.13,615,311.2,566.17,217.85,517.66,181.5,402.65,230,309.3c48.21-92.79,162.52-128.92,255.3-80.7,92.21,47.92,128.12,161.52,80.2,253.73C517.88,574,405,609.67,313.33,562c-91.08-47.33-126.55-159.54-79.22-250.63,47.05-90.52,158.57-125.77,249.09-78.73a183.57,183.57,0,0,1,78.25,247.56C515,569.66,404.83,604.48,315.41,558A180.79,180.79,0,0,1,481.15,236.66c87.78,45.62,122,153.76,76.35,241.54A177.48,177.48,0,1,1,242,315.49,175.31,175.31,0,1,1,553.64,476.21a173.16,173.16,0,0,1-307.8-158.75,171,171,0,1,1,304,156.81A169,169,0,0,1,249.56,319.38a166.88,166.88,0,1,1,296.64,153,164.84,164.84,0,1,1-293-151.12A162.82,162.82,0,1,1,542.61,470.52a161.32,161.32,0,0,1-217.54,68.77"/></g></g></svg>